<?xml version="1.0" standalone="no"?>
<!DOCTYPE svg PUBLIC "-//W3C//DTD SVG 20010904//EN"
 "http://www.w3.org/TR/2001/REC-SVG-20010904/DTD/svg10.dtd">
<svg version="1.0" xmlns="http://www.w3.org/2000/svg"
 width="165.000000pt" height="165.000000pt" viewBox="0 0 165.000000 165.000000"
 preserveAspectRatio="xMidYMid meet">
<metadata>
Created by potrace 1.14, written by Peter Selinger 2001-2017
</metadata>
<g transform="translate(0.000000,165.000000) scale(0.100000,-0.100000)"
fill="#000000" stroke="none">
<path d="M920 1405 c-75 -17 -135 -42 -196 -82 -56 -36 -150 -131 -178 -178
-17 -29 -19 -30 -81 -27 -220 12 -416 -150 -455 -377 -30 -172 62 -361 220
-454 90 -52 132 -57 527 -57 222 0 382 4 415 11 147 30 311 148 388 278 87
149 107 326 56 488 -93 289 -401 466 -696 398z m233 -140 c210 -55 347 -228
347 -440 0 -216 -141 -391 -356 -441 -54 -12 -129 -14 -418 -12 -332 3 -353 4
-397 24 -67 31 -114 78 -149 146 -94 189 29 410 241 435 l51 6 -7 -49 c-3 -27
-9 -61 -11 -76 l-6 -28 76 0 76 0 0 34 c0 19 9 62 19 95 70 226 311 364 534
306z"/>
</g>
</svg>
